<svg id="Layer_1" height="512" viewBox="0 0 128 128" width="512" 
  xmlns="http://www.w3.org/2000/svg" data-name="Layer 1">
  <path fill="#fff" d="m107.309 11.25h-86.618a5.621 5.621 0 0 0 -5.614 5.614v86.617a5.619 5.619 0 0 0 5.553 5.611v5.908a1.751 1.751 0 0 0 1.75 1.75h11.907a1.751 1.751 0 0 0 1.75-1.75v-5.9h55.926v5.9a1.751 1.751 0 0 0 1.75 1.75h11.907a1.751 1.751 0 0 0 1.75-1.75v-5.908a5.619 5.619 0 0 0 5.553-5.611v-86.617a5.621 5.621 0 0 0 -5.614-5.614zm-74.772 102h-8.407v-4.15h8.407zm62.926 0v-4.15h8.407v4.155zm13.96-9.769a2.116 2.116 0 0 1 -2.114 2.114h-86.618a2.116 2.116 0 0 1 -2.114-2.114v-86.617a2.116 2.116 0 0 1 2.114-2.114h86.618a2.116 2.116 0 0 1 2.114 2.114z"/>
  <path fill="#fff" d="m79.206 45.235a1.7 1.7 0 0 0 -.121-.148 1.861 1.861 0 0 0 -.146-.12 21.273 21.273 0 0 0 -29.878 0 1.861 1.861 0 0 0 -.146.12 1.7 1.7 0 0 0 -.121.148 21.271 21.271 0 0 0 0 29.88 1.74 1.74 0 0 0 .117.143 1.687 1.687 0 0 0 .141.115 21.271 21.271 0 0 0 29.888 0 1.687 1.687 0 0 0 .141-.115 1.74 1.74 0 0 0 .117-.143 21.271 21.271 0 0 0 0-29.88zm-1.426 26.243-3.224-3.224a13.228 13.228 0 0 0 2.629-6.331h4.56a17.744 17.744 0 0 1 -3.965 9.555zm-31.525-9.555h4.56a13.228 13.228 0 0 0 2.629 6.331l-3.224 3.224a17.744 17.744 0 0 1 -3.965-9.555zm3.965-13.056 3.224 3.225a13.228 13.228 0 0 0 -2.629 6.331h-4.56a17.75 17.75 0 0 1 3.965-9.556zm13.78 21.119a9.814 9.814 0 1 1 9.813-9.813 9.824 9.824 0 0 1 -9.813 9.813zm8.081-20.369a13.228 13.228 0 0 0 -6.331-2.629v-4.561a17.759 17.759 0 0 1 9.556 3.966zm-9.831-2.629a13.228 13.228 0 0 0 -6.331 2.629l-3.225-3.224a17.759 17.759 0 0 1 9.556-3.966zm-6.332 23.741a13.246 13.246 0 0 0 6.332 2.629v4.56a17.755 17.755 0 0 1 -9.556-3.965zm9.832 2.629a13.246 13.246 0 0 0 6.332-2.629l3.224 3.224a17.755 17.755 0 0 1 -9.556 3.965zm11.435-14.935a13.228 13.228 0 0 0 -2.629-6.331l3.224-3.225a17.75 17.75 0 0 1 3.965 9.556z"/>
  <path fill="#fff" d="m64 55.957a4.216 4.216 0 1 0 4.216 4.216 4.22 4.22 0 0 0 -4.216-4.216zm0 4.932a.716.716 0 1 1 .716-.716.717.717 0 0 1 -.716.716z"/>
  <path fill="#fff" d="m104 51.917h-1.25v-25.578a1.751 1.751 0 0 0 -1.75-1.75h-74a1.751 1.751 0 0 0 -1.75 1.75v5.981a5.439 5.439 0 0 0 -3.683 5.139v7.467a5.439 5.439 0 0 0 3.683 5.139v20.216a5.438 5.438 0 0 0 -3.683 5.138v7.467a5.439 5.439 0 0 0 3.683 5.139v5.981a1.751 1.751 0 0 0 1.75 1.75h74a1.751 1.751 0 0 0 1.75-1.75v-25.578h1.25a1.751 1.751 0 0 0 1.75-1.75v-13.011a1.751 1.751 0 0 0 -1.75-1.75zm-1.75 13.011h-4.958v-9.511h4.954zm-77.179-27.469a1.933 1.933 0 0 1 3.866 0v7.467a1.934 1.934 0 0 1 -1.93 1.933h-.007a1.935 1.935 0 0 1 -1.931-1.933zm0 37.96a1.933 1.933 0 0 1 3.866 0v7.467a1.933 1.933 0 0 1 -3.866 0zm74.175 16.837h-70.492v-4.231a5.439 5.439 0 0 0 3.683-5.139v-7.467a5.439 5.439 0 0 0 -3.683-5.138v-20.216a5.439 5.439 0 0 0 3.683-5.139v-7.467a5.437 5.437 0 0 0 -3.683-5.138v-4.232h70.492v23.828h-3.7a1.75 1.75 0 0 0 -1.75 1.75v13.011a1.75 1.75 0 0 0 1.75 1.75h3.7z"/>
</svg>